<?xml version="1.0" encoding="UTF-8" standalone="no"?>
<svg
   xmlns:dc="http://purl.org/dc/elements/1.1/"
   xmlns:cc="http://creativecommons.org/ns#"
   xmlns:rdf="http://www.w3.org/1999/02/22-rdf-syntax-ns#"
   xmlns:svg="http://www.w3.org/2000/svg"
   xmlns="http://www.w3.org/2000/svg"
   xmlns:xlink="http://www.w3.org/1999/xlink"
   xmlns:sodipodi="http://sodipodi.sourceforge.net/DTD/sodipodi-0.dtd"
   xmlns:inkscape="http://www.inkscape.org/namespaces/inkscape"
   sodipodi:docname="tioga-logo-color.svg"
   inkscape:version="1.0beta2 (2b71d25, 2019-12-03)"
   id="svg8"
   version="1.1"
   viewBox="0 0 46.462154 56.814075"
   height="56.814075mm"
   width="46.462154mm">
  <defs
     id="defs2">
    <linearGradient
       x1="0"
       y1="0"
       x2="1"
       y2="0"
       gradientUnits="userSpaceOnUse"
       gradientTransform="matrix(13.896072,-56.847443,-56.847443,-13.896072,52.643555,528.1167)"
       spreadMethod="pad"
       id="linearGradient104">
      <stop
         style="stop-opacity:1;stop-color:#707070"
         offset="0"
         id="stop90" />
      <stop
         style="stop-opacity:1;stop-color:#707070"
         offset="0.0337067"
         id="stop92" />
      <stop
         style="stop-opacity:1;stop-color:#e5e5e5"
         offset="0.213486"
         id="stop94" />
      <stop
         style="stop-opacity:1;stop-color:#292929"
         offset="0.393265"
         id="stop96" />
      <stop
         style="stop-opacity:1;stop-color:#7c7c7c"
         offset="0.629211"
         id="stop98" />
      <stop
         style="stop-opacity:1;stop-color:#cccccc"
         offset="0.769669"
         id="stop100" />
      <stop
         style="stop-opacity:1;stop-color:#515151"
         offset="1"
         id="stop102" />
    </linearGradient>
    <linearGradient
       x1="0"
       y1="0"
       x2="1"
       y2="0"
       gradientUnits="userSpaceOnUse"
       gradientTransform="matrix(10.180603,-98.942947,-98.942947,-10.180603,70.834961,520.49609)"
       spreadMethod="pad"
       id="linearGradient128">
      <stop
         style="stop-opacity:1;stop-color:#555555"
         offset="0"
         id="stop120" />
      <stop
         style="stop-opacity:1;stop-color:#555555"
         offset="0.219101"
         id="stop122" />
      <stop
         style="stop-opacity:1;stop-color:#1a1a1a"
         offset="0.758423"
         id="stop124" />
      <stop
         style="stop-opacity:1;stop-color:#000000"
         offset="1"
         id="stop126" />
    </linearGradient>
    <linearGradient
       x1="0"
       y1="0"
       x2="1"
       y2="0"
       gradientUnits="userSpaceOnUse"
       gradientTransform="matrix(3.1815033,-62.993149,-62.993149,-3.1815033,108.66846,517.37451)"
       spreadMethod="pad"
       id="linearGradient158">
      <stop
         style="stop-opacity:1;stop-color:#707070"
         offset="0"
         id="stop144" />
      <stop
         style="stop-opacity:1;stop-color:#707070"
         offset="0.0337067"
         id="stop146" />
      <stop
         style="stop-opacity:1;stop-color:#e5e5e5"
         offset="0.213486"
         id="stop148" />
      <stop
         style="stop-opacity:1;stop-color:#292929"
         offset="0.393265"
         id="stop150" />
      <stop
         style="stop-opacity:1;stop-color:#7c7c7c"
         offset="0.629211"
         id="stop152" />
      <stop
         style="stop-opacity:1;stop-color:#cccccc"
         offset="0.769669"
         id="stop154" />
      <stop
         style="stop-opacity:1;stop-color:#515151"
         offset="1"
         id="stop156" />
    </linearGradient>
    <linearGradient
       x1="0"
       y1="0"
       x2="1"
       y2="0"
       gradientUnits="userSpaceOnUse"
       gradientTransform="matrix(71.271423,-113.27045,-113.27045,-71.271423,94.587891,522.53027)"
       spreadMethod="pad"
       id="linearGradient182">
      <stop
         style="stop-opacity:1;stop-color:#555555"
         offset="0"
         id="stop174" />
      <stop
         style="stop-opacity:1;stop-color:#555555"
         offset="0.219101"
         id="stop176" />
      <stop
         style="stop-opacity:1;stop-color:#1a1a1a"
         offset="0.758423"
         id="stop178" />
      <stop
         style="stop-opacity:1;stop-color:#000000"
         offset="1"
         id="stop180" />
    </linearGradient>
    <linearGradient
       x1="0"
       y1="0"
       x2="1"
       y2="0"
       gradientUnits="userSpaceOnUse"
       gradientTransform="matrix(18.260025,-57.327454,-57.327454,-18.260025,140.38965,501.63525)"
       spreadMethod="pad"
       id="linearGradient212">
      <stop
         style="stop-opacity:1;stop-color:#707070"
         offset="0"
         id="stop198" />
      <stop
         style="stop-opacity:1;stop-color:#707070"
         offset="0.0337067"
         id="stop200" />
      <stop
         style="stop-opacity:1;stop-color:#e5e5e5"
         offset="0.213486"
         id="stop202" />
      <stop
         style="stop-opacity:1;stop-color:#292929"
         offset="0.393265"
         id="stop204" />
      <stop
         style="stop-opacity:1;stop-color:#7c7c7c"
         offset="0.629211"
         id="stop206" />
      <stop
         style="stop-opacity:1;stop-color:#cccccc"
         offset="0.769669"
         id="stop208" />
      <stop
         style="stop-opacity:1;stop-color:#515151"
         offset="1"
         id="stop210" />
    </linearGradient>
    <linearGradient
       x1="0"
       y1="0"
       x2="1"
       y2="0"
       gradientUnits="userSpaceOnUse"
       gradientTransform="matrix(36.26738,-83.033279,-83.033279,-36.26738,142.25586,502.92236)"
       spreadMethod="pad"
       id="linearGradient236">
      <stop
         style="stop-opacity:1;stop-color:#555555"
         offset="0"
         id="stop228" />
      <stop
         style="stop-opacity:1;stop-color:#555555"
         offset="0.219101"
         id="stop230" />
      <stop
         style="stop-opacity:1;stop-color:#1a1a1a"
         offset="0.758423"
         id="stop232" />
      <stop
         style="stop-opacity:1;stop-color:#000000"
         offset="1"
         id="stop234" />
    </linearGradient>
    <linearGradient
       x1="0"
       y1="0"
       x2="1"
       y2="0"
       gradientUnits="userSpaceOnUse"
       gradientTransform="matrix(1.5906067,-54.080154,-54.080154,-1.5906067,148.42529,449.83496)"
       spreadMethod="pad"
       id="linearGradient266">
      <stop
         style="stop-opacity:1;stop-color:#707070"
         offset="0"
         id="stop252" />
      <stop
         style="stop-opacity:1;stop-color:#707070"
         offset="0.0337067"
         id="stop254" />
      <stop
         style="stop-opacity:1;stop-color:#e5e5e5"
         offset="0.213486"
         id="stop256" />
      <stop
         style="stop-opacity:1;stop-color:#292929"
         offset="0.393265"
         id="stop258" />
      <stop
         style="stop-opacity:1;stop-color:#7c7c7c"
         offset="0.629211"
         id="stop260" />
      <stop
         style="stop-opacity:1;stop-color:#cccccc"
         offset="0.769669"
         id="stop262" />
      <stop
         style="stop-opacity:1;stop-color:#515151"
         offset="1"
         id="stop264" />
    </linearGradient>
    <linearGradient
       x1="0"
       y1="0"
       x2="1"
       y2="0"
       gradientUnits="userSpaceOnUse"
       gradientTransform="matrix(3.3946686,-55.580307,-55.580307,-3.3946686,155.36377,459.19727)"
       spreadMethod="pad"
       id="linearGradient290">
      <stop
         style="stop-opacity:1;stop-color:#555555"
         offset="0"
         id="stop282" />
      <stop
         style="stop-opacity:1;stop-color:#555555"
         offset="0.219101"
         id="stop284" />
      <stop
         style="stop-opacity:1;stop-color:#1a1a1a"
         offset="0.758423"
         id="stop286" />
      <stop
         style="stop-opacity:1;stop-color:#000000"
         offset="1"
         id="stop288" />
    </linearGradient>
    <clipPath
       clipPathUnits="userSpaceOnUse"
       id="clipPath300">
      <path
         d="M 0,800 H 800 V 0 H 0 Z"
         id="path298"
         inkscape:connector-curvature="0" />
    </clipPath>
    <clipPath
       clipPathUnits="userSpaceOnUse"
       id="clipPath308">
      <path
         d="m 141.862,447.21 h 30.866 v -39.262 h -30.866 z"
         id="path306"
         inkscape:connector-curvature="0" />
    </clipPath>
    <radialGradient
       fx="0"
       fy="0"
       cx="0"
       cy="0"
       r="1"
       gradientUnits="userSpaceOnUse"
       gradientTransform="matrix(54.496582,0,0,-54.496582,85.648437,418.83643)"
       spreadMethod="pad"
       id="radialGradient362">
      <stop
         style="stop-opacity:1;stop-color:#245683"
         offset="0"
         id="stop354" />
      <stop
         style="stop-opacity:1;stop-color:#75d2fc"
         offset="0.467026"
         id="stop356" />
      <stop
         style="stop-opacity:1;stop-color:#042554"
         offset="0.994507"
         id="stop358" />
      <stop
         style="stop-opacity:1;stop-color:#042554"
         offset="1"
         id="stop360" />
    </radialGradient>
    <linearGradient
       x1="0"
       y1="0"
       x2="1"
       y2="0"
       gradientUnits="userSpaceOnUse"
       gradientTransform="matrix(3.1787567,-70.569733,-70.569733,-3.1787567,65.118164,463.60547)"
       spreadMethod="pad"
       id="linearGradient392">
      <stop
         style="stop-opacity:1;stop-color:#707070"
         offset="0"
         id="stop378" />
      <stop
         style="stop-opacity:1;stop-color:#707070"
         offset="0.0337067"
         id="stop380" />
      <stop
         style="stop-opacity:1;stop-color:#e5e5e5"
         offset="0.213486"
         id="stop382" />
      <stop
         style="stop-opacity:1;stop-color:#292929"
         offset="0.393265"
         id="stop384" />
      <stop
         style="stop-opacity:1;stop-color:#7c7c7c"
         offset="0.629211"
         id="stop386" />
      <stop
         style="stop-opacity:1;stop-color:#cccccc"
         offset="0.769669"
         id="stop388" />
      <stop
         style="stop-opacity:1;stop-color:#515151"
         offset="1"
         id="stop390" />
    </linearGradient>
    <linearGradient
       x1="0"
       y1="0"
       x2="1"
       y2="0"
       gradientUnits="userSpaceOnUse"
       gradientTransform="matrix(27.677734,-65.853989,-65.853989,-27.677734,64.200684,474.17969)"
       spreadMethod="pad"
       id="linearGradient416">
      <stop
         style="stop-opacity:1;stop-color:#555555"
         offset="0"
         id="stop408" />
      <stop
         style="stop-opacity:1;stop-color:#555555"
         offset="0.219101"
         id="stop410" />
      <stop
         style="stop-opacity:1;stop-color:#1a1a1a"
         offset="0.758423"
         id="stop412" />
      <stop
         style="stop-opacity:1;stop-color:#000000"
         offset="1"
         id="stop414" />
    </linearGradient>
    <clipPath
       clipPathUnits="userSpaceOnUse"
       id="clipPath426">
      <path
         d="M 0,800 H 800 V 0 H 0 Z"
         id="path424"
         inkscape:connector-curvature="0" />
    </clipPath>
    <clipPath
       clipPathUnits="userSpaceOnUse"
       id="clipPath434">
      <path
         d="M 50.79,523.063 H 95.8252 V 469.858 H 50.79 Z"
         id="path432"
         inkscape:connector-curvature="0" />
    </clipPath>
    <clipPath
       clipPathUnits="userSpaceOnUse"
       id="clipPath450">
      <path
         d="m 100.06,505.444 h 37.941 V 462.196 H 100.06 Z"
         id="path448"
         inkscape:connector-curvature="0" />
    </clipPath>
    <clipPath
       clipPathUnits="userSpaceOnUse"
       id="clipPath466">
      <path
         d="m 141.431,487.396 h 32.365 v -39.268 h -32.365 z"
         id="path464"
         inkscape:connector-curvature="0" />
    </clipPath>
    <clipPath
       clipPathUnits="userSpaceOnUse"
       id="clipPath482">
      <path
         d="M 54.2407,468.72 H 99.9214 V 418.347 H 54.2407 Z"
         id="path480"
         inkscape:connector-curvature="0" />
    </clipPath>
    <radialGradient
       fx="0"
       fy="0"
       cx="0"
       cy="0"
       r="1"
       gradientUnits="userSpaceOnUse"
       gradientTransform="matrix(25.55011,0,0,-25.55011,135.10352,392.09863)"
       spreadMethod="pad"
       id="radialGradient510">
      <stop
         style="stop-opacity:1;stop-color:#75d2fc"
         offset="0"
         id="stop504" />
      <stop
         style="stop-opacity:1;stop-color:#042554"
         offset="0.994507"
         id="stop506" />
      <stop
         style="stop-opacity:1;stop-color:#042554"
         offset="1"
         id="stop508" />
    </radialGradient>
    <linearGradient
       x1="0"
       y1="0"
       x2="1"
       y2="0"
       gradientUnits="userSpaceOnUse"
       gradientTransform="matrix(25.76944,51.856964,51.856964,-25.76944,98.774414,359.50195)"
       spreadMethod="pad"
       id="linearGradient542">
      <stop
         style="stop-opacity:1;stop-color:#707070"
         offset="0"
         id="stop526" />
      <stop
         style="stop-opacity:1;stop-color:#707070"
         offset="0.0337067"
         id="stop528" />
      <stop
         style="stop-opacity:1;stop-color:#e5e5e5"
         offset="0.213486"
         id="stop530" />
      <stop
         style="stop-opacity:1;stop-color:#292929"
         offset="0.393265"
         id="stop532" />
      <stop
         style="stop-opacity:1;stop-color:#7c7c7c"
         offset="0.629211"
         id="stop534" />
      <stop
         style="stop-opacity:1;stop-color:#cccccc"
         offset="0.769669"
         id="stop536" />
      <stop
         style="stop-opacity:1;stop-color:#515151"
         offset="0.876404"
         id="stop538" />
      <stop
         style="stop-opacity:1;stop-color:#393939"
         offset="1"
         id="stop540" />
    </linearGradient>
    <linearGradient
       x1="0"
       y1="0"
       x2="1"
       y2="0"
       gradientUnits="userSpaceOnUse"
       gradientTransform="matrix(0,-41.040649,-41.040649,0,119.72412,410.5542)"
       spreadMethod="pad"
       id="linearGradient566">
      <stop
         style="stop-opacity:1;stop-color:#555555"
         offset="0"
         id="stop558" />
      <stop
         style="stop-opacity:1;stop-color:#555555"
         offset="0.219101"
         id="stop560" />
      <stop
         style="stop-opacity:1;stop-color:#1a1a1a"
         offset="0.758423"
         id="stop562" />
      <stop
         style="stop-opacity:1;stop-color:#000000"
         offset="1"
         id="stop564" />
    </linearGradient>
    <clipPath
       clipPathUnits="userSpaceOnUse"
       id="clipPath576">
      <path
         d="M 0,800 H 800 V 0 H 0 Z"
         id="path574"
         inkscape:connector-curvature="0" />
    </clipPath>
    <clipPath
       clipPathUnits="userSpaceOnUse"
       id="clipPath584">
      <path
         d="m 100.735,410.266 h 37.978 v -44.055 h -37.978 z"
         id="path582"
         inkscape:connector-curvature="0" />
    </clipPath>
    <radialGradient
       fx="0"
       fy="0"
       cx="0"
       cy="0"
       r="1"
       gradientUnits="userSpaceOnUse"
       gradientTransform="matrix(109.60387,0,0,-109.60385,119.77539,446.85986)"
       spreadMethod="pad"
       id="radialGradient612">
      <stop
         style="stop-opacity:1;stop-color:#75d2fc"
         offset="0"
         id="stop606" />
      <stop
         style="stop-opacity:1;stop-color:#042554"
         offset="0.994507"
         id="stop608" />
      <stop
         style="stop-opacity:1;stop-color:#042554"
         offset="1"
         id="stop610" />
    </radialGradient>
    <clipPath
       clipPathUnits="userSpaceOnUse"
       id="clipPath622">
      <path
         d="M 0,800 H 800 V 0 H 0 Z"
         id="path620"
         inkscape:connector-curvature="0" />
    </clipPath>
    <clipPath
       clipPathUnits="userSpaceOnUse"
       id="clipPath630">
      <path
         d="M 53.127,457.964 H 170.963 V 363.966 H 53.127 Z"
         id="path628"
         inkscape:connector-curvature="0" />
    </clipPath>
    <linearGradient
       spreadMethod="pad"
       y2="0"
       x2="1"
       y1="0"
       x1="0"
       gradientTransform="matrix(3.3946686,-55.580307,-55.580307,-3.3946686,155.36377,459.19727)"
       gradientUnits="userSpaceOnUse"
       id="linearGradient896"
       xlink:href="#linearGradient290"
       inkscape:collect="always" />
    <linearGradient
       spreadMethod="pad"
       y2="0"
       x2="1"
       y1="0"
       x1="0"
       gradientTransform="matrix(3.3946686,-55.580307,-55.580307,-3.3946686,155.36377,459.19727)"
       gradientUnits="userSpaceOnUse"
       id="linearGradient898"
       xlink:href="#linearGradient290"
       inkscape:collect="always" />
  </defs>
  <sodipodi:namedview
     fit-margin-bottom="0"
     fit-margin-right="0"
     fit-margin-left="0"
     fit-margin-top="0"
     inkscape:window-maximized="0"
     inkscape:window-y="68"
     inkscape:window-x="186"
     inkscape:window-height="1209"
     inkscape:window-width="1600"
     showgrid="false"
     inkscape:document-rotation="0"
     inkscape:current-layer="g54"
     inkscape:document-units="mm"
     inkscape:cy="338.79373"
     inkscape:cx="362.48878"
     inkscape:zoom="0.88"
     inkscape:pageshadow="2"
     inkscape:pageopacity="0.0"
     borderopacity="1.0"
     bordercolor="#666666"
     pagecolor="#ffffff"
     id="base" />
  <metadata
     id="metadata5">
    <rdf:RDF>
      <cc:Work
         rdf:about="">
        <dc:format>image/svg+xml</dc:format>
        <dc:type
           rdf:resource="http://purl.org/dc/dcmitype/StillImage" />
        <dc:title></dc:title>
      </cc:Work>
    </rdf:RDF>
  </metadata>
  <g
     transform="translate(-9.9248444,-58.527491)"
     id="layer1"
     inkscape:groupmode="layer"
     inkscape:label="Layer 1">
    <g
       id="g54"
       inkscape:label="AI"
       transform="matrix(0.35277777,0,0,-0.35277777,-4.9243648,243.05249)">
      <g
         id="g64"
         transform="translate(159.7349,399.5151)">
        <path
           d="M 0,0 C -2.684,2.407 -5.78,3.579 -8.958,3.392 -9.055,3.389 -9.147,3.377 -9.238,3.367 L -9.3,3.362 c -6.133,1.776 -16.398,7.109 -16.726,22.888 -0.02,0.941 -0.009,1.811 0.03,2.657 0.842,2.077 1.347,4.288 1.491,6.574 0.032,0.531 0.05,0.967 0.05,1.373 0,10.833 -8.069,19.645 -17.985,19.645 -0.433,0 -0.883,-0.02 -1.416,-0.066 -0.655,-0.056 -1.294,-0.159 -1.927,-0.29 -16.394,-0.986 -19.454,-13.619 -18.298,-23.37 0.082,-0.697 0.189,-1.383 0.318,-2.057 -0.546,-3.262 -3.186,-13.007 -15.345,-14.417 -8.429,-0.977 -8.934,1.62 -16.753,0 -11.245,-2.327 -20.578,-14.206 -18.878,-28.632 1.718,-14.579 15.016,-21.903 25.638,-21.028 0.155,-0.004 0.308,-0.014 0.462,-0.014 12.241,0 22.2,10.918 22.2,24.338 0,0.317 0.007,0.707 0.014,1.118 l 0.017,1.205 c 0.008,0.953 -0.017,1.621 -0.077,2.103 1,5.594 4.217,15.484 14.525,19.19 2.7,0.972 5.747,1.464 9.053,1.464 0.148,0 0.289,-0.011 0.436,-0.014 5.327,-0.891 11.662,-3.317 15.539,-9.487 4.664,-7.422 3.816,-12.51 2.122,-16.967 -1.55,-4.067 -1.885,-24.746 14.056,-26.586 1.261,-0.379 2.559,-0.547 3.872,-0.471 8.204,0.481 14.416,10.041 13.847,21.309 C 6.633,-9.66 4.028,-3.611 0,0 m -44.237,8.302 c -11.594,0.626 -22.649,-5.57 -22.251,-22.436 0.46,-19.449 21.065,-21.207 23.495,-20.567 9.63,0.744 17.243,10.073 17.243,21.475 0,11.889 -8.276,21.528 -18.487,21.528 m -45.542,58.325 c -9.795,-0.022 -24.306,-6.063 -23.635,-23.499 1.073,-27.88 26.128,-26.245 28.831,-25.688 0.001,0 0.003,0.011 0.005,0.013 0.5,0.043 1.001,0.093 1.502,0.172 12.156,1.893 20.306,14.369 18.204,27.872 -2.048,13.161 -13.089,22.432 -24.907,21.13 m 81.446,-21.42 c 0.014,0.033 0.041,0.058 0.106,0.069 -5.321,0.399 -18.958,-4.98 -16.371,-20.496 C -21.878,8.456 -9.455,6.179 -4.72,7.026 -4.172,7.07 -3.623,7.146 -3.072,7.271 4.93,9.087 9.808,18.995 7.822,29.402 5.997,38.972 -0.997,45.609 -8.333,45.207 m 3.033,2.007 c 1.567,-0.133 3.142,0.015 4.68,0.49 8.061,2.484 12.032,12.822 8.863,23.091 -2.869,9.312 -10.619,15.347 -18.05,14.539 -6.639,0.16 -15.453,-4.083 -15.298,-16.378 0.23,-18.157 15.168,-21.48 19.805,-21.742 m -34.638,14.069 c 1.782,0.145 3.507,0.604 5.107,1.408 8.47,4.252 10.917,16.504 5.465,27.364 -4.427,8.819 -12.702,14.007 -20.192,13.369 -0.218,-0.005 -0.444,-0.028 -0.676,-0.078 -0.213,-0.028 -0.426,-0.064 -0.638,-0.102 -7.17,-0.297 -18.258,-5.828 -15.999,-21.099 3.07,-20.778 22.196,-21.436 26.933,-20.862 m -45.175,7.667 c 1.132,0.088 2.252,0.278 3.348,0.595 0.729,0.209 1.45,0.467 2.156,0.785 10.514,4.707 14.097,19.568 7.997,33.191 -5.777,12.901 -18.157,20.058 -28.386,16.788 -0.527,-0.17 -1.049,-0.364 -1.562,-0.587 -7.083,-2.159 -18.221,-8.263 -15.725,-25.16 3.758,-25.419 26.612,-26.348 32.172,-25.612"
           style="fill:#000000;fill-opacity:1;fill-rule:nonzero;stroke:none"
           id="path66"
           inkscape:connector-curvature="0" />
      </g>
      <g
         id="g78">
        <g
           id="g80">
          <g
             id="g86">
            <g
               id="g88">
              <path
                 d="m 46.678,496.027 c 4.004,-27.086 29.694,-26.366 33.034,-25.45 v 0 c 0.139,0.035 -1.054,4.61 -0.412,5.101 v 0 c -10.074,-2.857 -18.735,-0.39 -24.4,12.26 v 0 c -6.099,13.621 -2.518,28.484 7.999,33.193 v 0 c 0.559,0.251 1.127,0.459 1.702,0.644 v 0 C 57.982,520.262 43.902,514.813 46.678,496.027 M 79.3,475.678 c 0.049,0.013 0.098,0.027 0.147,0.041 v 0 c -0.007,0.001 -0.013,0.001 -0.019,0.001 v 0 c -0.049,0 -0.091,-0.015 -0.128,-0.042"
                 style="fill:url(#linearGradient104);stroke:none"
                 id="path106"
                 inkscape:connector-curvature="0" />
            </g>
          </g>
        </g>
      </g>
      <g
         id="g108">
        <g
           id="g110">
          <g
             id="g116">
            <g
               id="g118">
              <path
                 d="m 63.966,521.775 c -0.576,-0.185 -1.143,-0.393 -1.703,-0.644 v 0 C 51.745,516.422 48.165,501.559 54.266,487.938 v 0 c 5.689,-12.711 17.793,-19.851 27.932,-16.928 v 0 c 0.728,0.208 1.45,0.468 2.155,0.784 v 0 c 10.515,4.708 14.098,19.57 7.997,33.194 v 0 c -4.835,10.801 -14.302,17.575 -23.257,17.575 v 0 c -1.741,0 -3.462,-0.256 -5.127,-0.788"
                 style="fill:url(#linearGradient128);stroke:none"
                 id="path130"
                 inkscape:connector-curvature="0" />
            </g>
          </g>
        </g>
      </g>
      <g
         id="g132">
        <g
           id="g134">
          <g
             id="g140">
            <g
               id="g142">
              <path
                 d="m 113.382,504.723 c -7.158,-0.158 -18.579,-5.635 -16.291,-21.112 v 0 c 3.298,-22.318 25.123,-21.424 27.744,-20.724 v 0 l -17.497,16.703 c -5.027,11.225 -1.048,19.082 7.619,22.963 v 0 c 2.312,1.037 1.236,2.343 -0.479,2.343 v 0 c -0.346,0 -0.72,-0.053 -1.096,-0.173"
                 style="fill:url(#linearGradient158);stroke:none"
                 id="path160"
                 inkscape:connector-curvature="0" />
            </g>
          </g>
        </g>
      </g>
      <g
         id="g162">
        <g
           id="g164">
          <g
             id="g170">
            <g
               id="g172">
              <path
                 d="m 109.385,503.485 c -8.47,-4.254 -11.551,-16.507 -6.101,-27.366 v 0 c 5.454,-10.86 17.377,-16.215 25.847,-11.963 v 0 c 8.471,4.252 10.917,16.504 5.466,27.364 v 0 c -4.185,8.333 -11.801,13.424 -18.946,13.424 v 0 c -2.168,0 -4.294,-0.469 -6.266,-1.459"
                 style="fill:url(#linearGradient182);stroke:none"
                 id="path184"
                 inkscape:connector-curvature="0" />
            </g>
          </g>
        </g>
      </g>
      <g
         id="g186">
        <g
           id="g188">
          <g
             id="g194">
            <g
               id="g196">
              <path
                 d="m 138.857,470.42 c 0.255,-20.081 18.507,-22.019 20.906,-21.735 v 0 l -15.779,15.004 c -3.007,10.528 4.889,18.84 13.017,21.161 v 0 c 2.607,0.745 0.447,2.215 -1.614,1.869 v 0 c -0.513,0.057 -1.045,0.086 -1.589,0.086 v 0 c -6.593,10e-4 -15.093,-4.308 -14.941,-16.385"
                 style="fill:url(#linearGradient212);stroke:none"
                 id="path214"
                 inkscape:connector-curvature="0" />
            </g>
          </g>
        </g>
      </g>
      <g
         id="g216">
        <g
           id="g218">
          <g
             id="g224">
            <g
               id="g226">
              <path
                 d="m 151.884,486.355 c -8.06,-2.483 -12.029,-12.823 -8.863,-23.091 v 0 c 3.163,-10.269 12.262,-16.579 20.323,-14.096 v 0 c 8.061,2.486 12.029,12.823 8.862,23.092 v 0 c -2.7,8.758 -9.712,14.637 -16.718,14.636 v 0 c -1.208,0 -2.418,-0.175 -3.604,-0.541"
                 style="fill:url(#linearGradient236);stroke:none"
                 id="path238"
                 inkscape:connector-curvature="0" />
            </g>
          </g>
        </g>
      </g>
      <g
         id="g240">
        <g
           id="g242">
          <g
             id="g248">
            <g
               id="g250">
              <path
                 d="m 139.365,426.247 c 2.756,-16.544 15.482,-18.665 20.067,-17.721 v 0 c 0.108,0.022 0,3.65 0.071,3.831 v 0 c -7.415,-1.051 -11.161,-0.364 -13.789,10.013 v 0 c -2.817,11.124 2.187,21.245 10.06,23.616 v 0 c 0.419,0.126 -0.459,0.682 -0.039,0.755 v 0 c -0.181,0.014 -0.371,0.02 -0.571,0.02 v 0 c -5.659,0 -18.298,-5.528 -15.799,-20.514"
                 style="fill:url(#linearGradient266);stroke:none"
                 id="path268"
                 inkscape:connector-curvature="0" />
            </g>
          </g>
        </g>
      </g>
      <g
         id="g270">
        <g
           id="g272">
          <g
             id="g278">
            <g
               id="g280">
              <path
                 d="m 153.7,446.422 c -8.003,-1.818 -12.882,-11.727 -10.895,-22.133 v 0 c 1.985,-10.407 10.082,-17.37 18.084,-15.553 v 0 c 8.003,1.815 12.88,11.723 10.896,22.132 v 0 c -1.773,9.294 -8.421,15.843 -15.523,15.842 v 0 c -0.85,0 -1.707,-0.093 -2.562,-0.288"
                 style="fill:url(#linearGradient896);stroke:none"
                 id="path292"
                 inkscape:connector-curvature="0" />
            </g>
          </g>
        </g>
      </g>
      <g
         id="g294">
        <g
           id="g296"
           clip-path="url(#clipPath300)">
          <g
             id="g302">
            <g
               id="g304" />
            <g
               id="g340">
              <g
                 clip-path="url(#clipPath308)"
                 id="g338">
                <g
                   id="g332">
                  <g
                     id="g330">
                    <g
                       id="g328">
                      <g
                         id="g326">
                        <path
                           d="m 171.785,430.868 c 1.985,-10.409 -2.892,-20.317 -10.896,-22.132 -8.002,-1.818 -16.099,5.146 -18.084,15.553 -1.986,10.407 2.892,20.315 10.895,22.133 8.003,1.817 16.1,-5.147 18.085,-15.554"
                           style="fill:url(#linearGradient898);stroke:none"
                           id="path324"
                           inkscape:connector-curvature="0" />
                      </g>
                    </g>
                  </g>
                </g>
                <g
                   transform="translate(171.7847,430.8677)"
                   id="g336">
                  <path
                     d="m 0,0 c 1.985,-10.408 -2.892,-20.316 -10.896,-22.132 -8.001,-1.817 -16.099,5.147 -18.084,15.553 -1.986,10.407 2.893,20.315 10.896,22.134 C -10.082,17.371 -1.985,10.407 0,0 Z"
                     style="fill:none;stroke:#ffffff;stroke-width:1;stroke-linecap:butt;stroke-linejoin:miter;stroke-miterlimit:4;stroke-dasharray:none;stroke-opacity:1"
                     id="path334"
                     inkscape:connector-curvature="0" />
                </g>
              </g>
            </g>
          </g>
        </g>
      </g>
      <g
         id="g342">
        <g
           id="g344">
          <g
             id="g350">
            <g
               id="g352">
              <path
                 d="m 99.882,434.241 c 0.08,-0.698 0.189,-1.386 0.319,-2.061 v 0 c -0.548,-3.261 -3.186,-13.006 -15.345,-14.417 v 0 c -3.867,-0.448 -6.066,-0.144 -8.068,0.159 v 0 c -2.364,0.359 -4.454,0.717 -8.688,-0.159 v 0 C 56.856,415.436 47.524,403.557 49.224,389.131 v 0 C 51.11,373.117 66.973,365.854 77.91,368.598 v 0 l -11.446,5.261 -3.104,16.122 2.69,11.877 7.245,10.391 h 7.864 l 19.042,2.547 4.761,8.271 0.205,6.998 -1.254,0.827 c 0.374,1.498 0.619,2.96 0.775,4.298 v 0 c -0.148,1.019 -0.227,2.063 -0.227,3.129 v 0 c 0,10.162 8.624,15.361 17.511,16.137 v 0 c -1.007,0.068 1.036,3.136 0,3.182 v 0 c -0.582,0.025 -1.151,0.038 -1.704,0.038 v 0 c -18.23,0 -21.591,-13.284 -20.386,-23.435"
                 style="fill:url(#radialGradient362);stroke:none"
                 id="path364"
                 inkscape:connector-curvature="0" />
            </g>
          </g>
        </g>
      </g>
      <g
         id="g366">
        <g
           id="g368">
          <g
             id="g374">
            <g
               id="g376">
              <path
                 d="m 50.549,444.595 c 1.072,-27.882 26.127,-26.247 28.831,-25.69 v 0 c 0.077,0.015 0.583,4.553 1.176,7.726 v 0 c -8.253,-0.525 -3.582,3.737 -4.237,16.849 v 0 c -0.159,3.183 6.087,24.902 -0.478,23.225 v 0 c -0.593,-0.152 -1.444,1.294 -0.848,1.379 v 0 c -0.247,0.008 -0.498,0.012 -0.752,0.012 v 0 c -9.796,0 -24.365,-6.032 -23.692,-23.501 m 30.007,-17.964 c 0.5,0.032 1.048,0.081 1.647,0.147 v 0 c -0.188,2.063 -0.419,2.872 -0.667,2.872 v 0 c -0.316,0 -0.661,-1.312 -0.98,-3.019"
                 style="fill:url(#linearGradient392);stroke:none"
                 id="path394"
                 inkscape:connector-curvature="0" />
            </g>
          </g>
        </g>
      </g>
      <g
         id="g396">
        <g
           id="g398">
          <g
             id="g404">
            <g
               id="g406">
              <path
                 d="m 73.275,467.977 c -12.157,-1.89 -20.307,-14.371 -18.204,-27.87 v 0 c 2.101,-13.501 13.658,-22.91 25.816,-21.017 v 0 c 12.155,1.892 20.304,14.372 18.204,27.872 v 0 c -1.921,12.335 -11.738,21.257 -22.692,21.257 v 0 c -1.033,0 -2.076,-0.079 -3.124,-0.242"
                 style="fill:url(#linearGradient416);stroke:none"
                 id="path418"
                 inkscape:connector-curvature="0" />
            </g>
          </g>
        </g>
      </g>
      <g
         id="g420">
        <g
           id="g422"
           clip-path="url(#clipPath426)">
          <g
             id="g428">
            <g
               id="g430" />
            <g
               id="g442">
              <g
                 clip-path="url(#clipPath434)"
                 id="g440">
                <g
                   transform="translate(92.3501,504.9883)"
                   id="g438">
                  <path
                     d="m 0,0 c -5.776,12.9 -18.157,20.057 -28.385,16.787 -0.575,-0.185 -1.143,-0.393 -1.702,-0.645 -10.517,-4.709 -14.098,-19.571 -7.998,-33.193 5.69,-12.71 17.794,-19.85 27.933,-16.928 0.728,0.209 1.449,0.469 2.154,0.785 C 2.518,-28.486 6.101,-13.625 0,0 Z"
                     style="fill:none;stroke:#ffffff;stroke-width:1;stroke-linecap:butt;stroke-linejoin:miter;stroke-miterlimit:4;stroke-dasharray:none;stroke-opacity:1"
                     id="path436"
                     inkscape:connector-curvature="0" />
                </g>
              </g>
            </g>
          </g>
          <g
             id="g444">
            <g
               id="g446" />
            <g
               id="g458">
              <g
                 clip-path="url(#clipPath450)"
                 id="g456">
                <g
                   transform="translate(134.5967,491.52)"
                   id="g454">
                  <path
                     d="m 0,0 c 5.452,-10.859 3.005,-23.112 -5.465,-27.364 -8.471,-4.252 -20.393,1.103 -25.848,11.963 -5.45,10.859 -2.369,23.112 6.102,27.366 C -16.74,16.216 -5.454,10.861 0,0 Z"
                     style="fill:none;stroke:#ffffff;stroke-width:1;stroke-linecap:butt;stroke-linejoin:miter;stroke-miterlimit:4;stroke-dasharray:none;stroke-opacity:1"
                     id="path452"
                     inkscape:connector-curvature="0" />
                </g>
              </g>
            </g>
          </g>
          <g
             id="g460">
            <g
               id="g462" />
            <g
               id="g474">
              <g
                 clip-path="url(#clipPath466)"
                 id="g472">
                <g
                   transform="translate(172.2061,472.2593)"
                   id="g470">
                  <path
                     d="m 0,0 c 3.167,-10.269 -0.801,-20.605 -8.863,-23.091 -8.06,-2.483 -17.159,3.827 -20.323,14.096 -3.166,10.268 0.804,20.608 8.864,23.091 C -12.263,16.581 -3.165,10.269 0,0 Z"
                     style="fill:none;stroke:#ffffff;stroke-width:1;stroke-linecap:butt;stroke-linejoin:miter;stroke-miterlimit:4;stroke-dasharray:none;stroke-opacity:1"
                     id="path468"
                     inkscape:connector-curvature="0" />
                </g>
              </g>
            </g>
          </g>
          <g
             id="g476">
            <g
               id="g478" />
            <g
               id="g490">
              <g
                 clip-path="url(#clipPath482)"
                 id="g488">
                <g
                   transform="translate(99.0913,446.9624)"
                   id="g486">
                  <path
                     d="m 0,0 c 2.101,-13.501 -6.049,-25.98 -18.205,-27.873 -12.157,-1.893 -23.715,7.517 -25.815,21.018 -2.104,13.499 6.047,25.979 18.204,27.87 C -13.661,22.909 -2.103,13.498 0,0 Z"
                     style="fill:none;stroke:#ffffff;stroke-width:1;stroke-linecap:butt;stroke-linejoin:miter;stroke-miterlimit:4;stroke-dasharray:none;stroke-opacity:1"
                     id="path484"
                     inkscape:connector-curvature="0" />
                </g>
              </g>
            </g>
          </g>
        </g>
      </g>
      <g
         id="g492">
        <g
           id="g494">
          <g
             id="g500">
            <g
               id="g502">
              <path
                 d="m 117.518,419.461 -5.514,-1.696 c 0,0 17.341,2.471 25.026,-9.759 v 0 c 4.665,-7.422 3.817,-12.51 2.122,-16.967 v 0 c -1.698,-4.453 -1.949,-28.842 19.05,-26.578 v 0 l -13.535,13.006 -0.213,10.181 -0.424,11.028 -0.212,6.15 -5.302,8.908 -12.727,6.15 z"
                 style="fill:url(#radialGradient510);stroke:none"
                 id="path512"
                 inkscape:connector-curvature="0" />
            </g>
          </g>
        </g>
      </g>
      <g
         id="g514">
        <g
           id="g516">
          <g
             id="g522">
            <g
               id="g524">
              <path
                 d="m 97.475,387.33 c 0.477,-20.203 22.707,-21.316 23.701,-20.483 v 0 l -10.658,7.278 10.817,-7.156 -16.088,13.51 c -5.152,11.507 2.486,22.276 11.37,26.253 v 0 c 2.848,1.278 0.941,1.794 3.108,3.034 v 0 c -0.526,0.029 -1.05,0.043 -1.572,0.043 v 0 c -10.999,0 -21.058,-6.377 -20.678,-22.479"
                 style="fill:url(#linearGradient542);stroke:none"
                 id="path544"
                 inkscape:connector-curvature="0" />
            </g>
          </g>
        </g>
      </g>
      <g
         id="g546">
        <g
           id="g548">
          <g
             id="g554">
            <g
               id="g556">
              <path
                 d="m 101.235,388.238 c 0,-11.889 8.278,-21.527 18.49,-21.527 v 0 c 10.21,0 18.488,9.638 18.488,21.527 v 0 c 0,11.888 -8.278,21.528 -18.488,21.528 v 0 c -10.212,0 -18.49,-9.64 -18.49,-21.528"
                 style="fill:url(#linearGradient566);stroke:none"
                 id="path568"
                 inkscape:connector-curvature="0" />
            </g>
          </g>
        </g>
      </g>
      <g
         id="g570">
        <g
           id="g572"
           clip-path="url(#clipPath576)">
          <g
             id="g578">
            <g
               id="g580" />
            <g
               id="g592">
              <g
                 clip-path="url(#clipPath584)"
                 id="g590">
                <g
                   transform="translate(138.2134,388.2383)"
                   id="g588">
                  <path
                     d="m 0,0 c 0,-11.889 -8.278,-21.527 -18.488,-21.527 -10.212,0 -18.491,9.638 -18.491,21.527 0,11.888 8.279,21.528 18.491,21.528 C -8.278,21.528 0,11.888 0,0 Z"
                     style="fill:none;stroke:#ffffff;stroke-width:1;stroke-linecap:butt;stroke-linejoin:miter;stroke-miterlimit:4;stroke-dasharray:none;stroke-opacity:1"
                     id="path586"
                     inkscape:connector-curvature="0" />
                </g>
              </g>
            </g>
          </g>
        </g>
      </g>
      <g
         id="g594">
        <g
           id="g596">
          <g
             id="g602">
            <g
               id="g604">
              <path
                 d="m 120.133,457.581 c -9.107,-0.776 -16.278,-9.1 -16.278,-19.262 v 0 c 0,-1.066 0.082,-2.11 0.235,-3.129 v 0 c -0.333,-2.772 -1.048,-6.065 -2.514,-9.135 v 0 c -0.556,-1.163 -1.216,-2.292 -2.006,-3.352 v 0 c -4.497,-4.489 -7.778,-6.402 -14.781,-7.657 v 0 c -0.376,-0.068 -0.755,-0.134 -1.154,-0.198 v 0 c -2.544,0.954 -5.497,1.599 -8.31,1.599 v 0 c -12.084,0 -21.879,-10.755 -21.879,-24.019 v 0 c 0,-13.268 9.795,-24.02 21.879,-24.02 v 0 c 12.082,0 21.879,10.752 21.879,24.02 v 0 c 0,0.617 0.027,1.476 0.033,2.324 v 0 c 0.006,0.791 -0.006,1.57 -0.08,2.121 v 0 c 0.914,5.15 3.99,15.607 14.737,19.47 v 0 c 2.587,0.931 5.611,1.483 9.161,1.483 v 0 c 2.619,0 4.922,-0.333 6.955,-0.923 v 0 c 11.464,-3.315 14.214,-14.875 14.8,-22.258 v 0 c -1.115,-3.657 -1.529,-7.129 -1.332,-11.079 v 0 c 0.564,-11.111 7.54,-19.736 15.584,-19.263 v 0 c 8.044,0.471 14.108,9.861 13.546,20.973 v 0 c -0.563,11.109 -7.542,19.735 -15.583,19.264 v 0 c -0.133,-0.007 -0.261,-0.024 -0.393,-0.037 v 0 c -6.274,1.802 -16.683,7.218 -17.013,23.207 v 0 c -0.017,0.877 -0.013,1.779 0.032,2.723 v 0 c 0.825,2.02 1.341,4.221 1.489,6.537 v 0 c 0.028,0.445 0.049,0.894 0.049,1.349 v 0 c 0,10.675 -7.911,19.327 -17.667,19.327 v 0 c -0.467,0 -0.929,-0.026 -1.389,-0.065"
                 style="fill:url(#radialGradient612);stroke:none"
                 id="path614"
                 inkscape:connector-curvature="0" />
            </g>
          </g>
        </g>
      </g>
      <g
         id="g616">
        <g
           id="g618"
           clip-path="url(#clipPath622)">
          <g
             id="g624">
            <g
               id="g626" />
            <g
               id="g638">
              <g
                 clip-path="url(#clipPath630)"
                 id="g636">
                <g
                   transform="translate(157.0425,364.6191)"
                   id="g634">
                  <path
                     d="m 0,0 c -3.002,-0.176 -5.939,0.941 -8.496,3.232 -3.905,3.502 -6.428,9.383 -6.751,15.731 -0.196,3.887 0.225,7.373 1.32,10.971 l 0.017,0.058 -0.006,0.059 c -0.551,6.954 -3.237,19.126 -15.029,22.54 -2.142,0.62 -4.513,0.934 -7.043,0.934 -3.38,0 -6.498,-0.505 -9.267,-1.5 -10.633,-3.823 -13.927,-13.994 -14.943,-19.716 l -0.01,-0.049 0.007,-0.047 c 0.079,-0.598 0.083,-1.471 0.077,-2.076 l -0.017,-1.199 c -0.007,-0.413 -0.015,-0.807 -0.015,-1.129 0,-13.069 -9.674,-23.702 -21.562,-23.702 -11.889,0 -21.561,10.633 -21.561,23.702 0,13.069 9.672,23.701 21.561,23.701 2.571,0 5.482,-0.561 8.2,-1.58 l 0.078,-0.029 0.085,0.013 c 0.41,0.067 0.798,0.135 1.157,0.2 6.72,1.203 10.212,3.012 14.949,7.745 l 0.016,0.016 0.015,0.019 c 0.757,1.011 1.443,2.156 2.038,3.405 1.271,2.66 2.126,5.767 2.544,9.236 l 0.006,0.042 -0.006,0.043 c -0.155,1.024 -0.232,2.06 -0.232,3.08 0,9.86 7.022,18.181 15.985,18.946 0.517,0.043 0.95,0.062 1.362,0.062 9.566,0 17.35,-8.526 17.35,-19.008 0,-0.393 -0.016,-0.816 -0.048,-1.33 -0.142,-2.242 -0.637,-4.407 -1.468,-6.434 l -0.021,-0.053 -0.002,-0.054 c -0.041,-0.874 -0.051,-1.773 -0.032,-2.746 C -19.405,46.845 -8.794,41.389 -2.5,39.578 l 0.061,-0.015 c -0.003,-0.001 0.059,0.004 0.059,0.004 l 0.128,0.016 c 0.087,0.007 0.171,0.014 0.253,0.02 C 1.003,39.78 3.94,38.662 6.498,36.372 10.403,32.869 12.925,26.99 13.247,20.641 13.8,9.721 7.859,0.461 0,0 m 13.884,20.674 c -0.331,6.514 -2.935,12.56 -6.964,16.171 -2.684,2.408 -5.781,3.579 -8.957,3.393 -0.097,-0.004 -0.192,-0.016 -0.281,-0.025 L -2.44,40.202 -2.323,40.19 c -6.127,1.762 -16.454,7.078 -16.782,22.905 -0.021,0.96 -0.01,1.844 0.03,2.703 l -0.023,-0.104 c 0.857,2.095 1.367,4.326 1.513,6.634 0.033,0.53 0.049,0.966 0.049,1.372 0,10.833 -8.068,19.645 -17.985,19.645 -0.432,0 -0.881,-0.021 -1.415,-0.065 -9.291,-0.792 -16.569,-9.392 -16.569,-19.58 0,-1.05 0.08,-2.119 0.238,-3.175 l -10e-4,0.086 c -0.408,-3.399 -1.245,-6.441 -2.486,-9.038 -0.578,-1.212 -1.243,-2.32 -1.975,-3.298 l 0.03,0.033 c -4.685,-4.68 -7.961,-6.377 -14.611,-7.568 -0.356,-0.065 -0.741,-0.133 -1.147,-0.198 l 0.162,-0.016 c -2.787,1.043 -5.778,1.619 -8.423,1.619 -12.24,0 -22.198,-10.916 -22.198,-24.336 0,-13.42 9.958,-24.338 22.198,-24.338 12.24,0 22.198,10.918 22.198,24.338 0,0.318 0.008,0.707 0.016,1.119 l 0.017,1.203 c 0.007,0.992 -0.019,1.682 -0.084,2.166 l -0.002,-0.1 c 0.993,5.588 4.202,15.513 14.533,19.228 2.701,0.972 5.747,1.464 9.052,1.464 2.471,0 4.781,-0.307 6.866,-0.91 C -18.27,48.84 -15.208,38.293 -14.549,30 l 0.012,0.119 c -1.117,-3.672 -1.544,-7.226 -1.345,-11.187 0.329,-6.514 2.933,-12.561 6.964,-16.174 2.684,-2.404 5.781,-3.578 8.957,-3.393 8.204,0.481 14.415,10.041 13.845,21.309"
                     style="fill:#ffffff;fill-opacity:1;fill-rule:nonzero;stroke:none"
                     id="path632"
                     inkscape:connector-curvature="0" />
                </g>
              </g>
            </g>
          </g>
        </g>
      </g>
    </g>
  </g>
</svg>
